<?xml version="1.0" encoding="UTF-8"?>
<svg width="741.35mm" height="645.44mm" version="1.1" viewBox="0 0 2626.8178 2286.9951" xmlns="http://www.w3.org/2000/svg">
 <g transform="translate(43.537 43.176)">
  <path d="m-43.537-43.176h2626.8v2287h-2626.8z" fill="#fff"/>
  <path d="m8.0812 9.8848h771.94v1038.4h-771.94z" fill="#eee"/>
  <path d="m26.264 30.088h735.92v131.32h-735.92z" fill="#fff"/>
  <path d="m26.264 178.66h456.59v75.761h-456.59z" fill="#03a9f4"/>
  <path d="m497.27 178.66h264.63v40.761h-264.63z" fill="#fff"/>
  <path d="m497.27 234.13h264.63v187.64h-264.63z" fill="#03a9f4"/>
  <path d="m26.264 272.6h456.59v571.48h-456.59z" fill="#fff"/>
  <path d="m497.27 436.16h264.63v503.06h-264.63z" fill="#fff"/>
  <path d="m26.264 863.54h456.59v75.761h-456.59z" fill="#03a9f4"/>
  <path d="m497.27 436.16h264.63v26.266h-264.63z" fill="#b3e5fc"/>
  <path d="m26.264 961.52h735.92v65.606h-735.92z" fill="#fff"/>
  <path d="m243.91 233.87h-4.7958l-3.3184-9.4325h-14.637l-3.3184 9.4325h-4.5685l12.319-33.843h6.0004l12.319 33.843zm-9.5006-13.296-5.9322-16.615-5.955 16.615h11.887z" fill="#fff"/>
  <path d="m269.3 233.87h-4.273v-2.6593q-1.841 1.591-3.8412 2.4774-2.0001 0.88642-4.3412 0.88642-4.5458 0-7.2278-3.5002-2.6593-3.5002-2.6593-9.7052 0-3.2275 0.90915-5.7504 0.93189-2.5229 2.5002-4.2958 1.5456-1.7274 3.5912-2.6365 2.0683-0.90915 4.273-0.90915 2.0001 0 3.5457 0.43184 1.5456 0.40912 3.2502 1.2956v-11.001h4.273v35.366zm-4.273-6.2504v-14.569q-1.7274-0.77278-3.0911-1.0682-1.3637-0.29548-2.9775-0.29548-3.5912 0-5.5913 2.5002t-2.0001 7.0914q0 4.523 1.5456 6.8868 1.5456 2.3411 4.9549 2.3411 1.8183 0 3.6821-0.79551 1.8638-0.81823 3.4775-2.091z" fill="#fff"/>
  <path d="m295.85 226.55q0 3.4775-2.8866 5.7049-2.8638 2.2274-7.8414 2.2274-2.8184 0-5.1822-0.65914-2.3411-0.68187-3.9321-1.4774v-4.7958h0.22729q2.0229 1.5228 4.5003 2.432 2.4774 0.88642 4.7503 0.88642 2.8184 0 4.4094-0.90915t1.591-2.8638q0-1.5001-0.86369-2.2729-0.8637-0.77278-3.3184-1.3183-0.90915-0.20456-2.3865-0.47731-1.4546-0.27274-2.6593-0.59095-3.3411-0.88642-4.7503-2.5911-1.3865-1.7274-1.3865-4.2276 0-1.5683 0.63641-2.9548 0.65914-1.3865 1.9774-2.4774 1.2728-1.0682 3.2275-1.6819 1.9774-0.63641 4.4094-0.63641 2.2729 0 4.5912 0.56822 2.3411 0.54549 3.8866 1.341v4.5685h-0.22729q-1.6365-1.2046-3.9775-2.0229-2.3411-0.84097-4.5912-0.84097-2.3411 0-3.9548 0.90916-1.6137 0.88642-1.6137 2.6593 0 1.5683 0.97733 2.3638 0.95461 0.79551 3.0911 1.2956 1.1819 0.27274 2.6366 0.54549 1.4774 0.27274 2.4547 0.50003 2.9775 0.68187 4.5912 2.3411 1.6137 1.6819 1.6137 4.4548z" fill="#fff"/>
  <path d="m613.99 353.33h-7.025l-4.8609-13.817h-21.441l-4.8609 13.817h-6.6921l18.045-49.575h8.7896l18.045 49.575zm-13.917-19.477-8.6897-24.338-8.723 24.338h17.413z" fill="#fff"/>
  <path d="m651.18 353.33h-6.2593v-3.8954q-2.6968 2.3306-5.6267 3.629-2.9299 1.2985-6.3592 1.2985-6.6588 0-10.587-5.1273-3.8954-5.1273-3.8954-14.217 0-4.7278 1.3318-8.4234 1.365-3.6956 3.6623-6.2926 2.264-2.5303 5.2604-3.8621 3.0298-1.3318 6.2593-1.3318 2.9299 0 5.1939 0.63258 2.264 0.59929 4.761 1.8978v-16.114h6.2593v51.805zm-6.2593-9.1558v-21.341q-2.5303-1.132-4.528-1.5648-1.9976-0.43282-4.3615-0.43282-5.2604 0-8.1903 3.6623t-2.9299 10.388q0 6.6255 2.264 10.088 2.264 3.4293 7.2581 3.4293 2.6635 0 5.3936-1.1653 2.7301-1.1986 5.094-3.063z" fill="#fff"/>
  <path d="m690.06 342.61q0 5.094-4.2283 8.3568-4.195 3.2628-11.486 3.2628-4.1285 0-7.591-0.96552-3.4293-0.99882-5.7599-2.1641v-7.025h0.33294q2.9632 2.2307 6.5922 3.5625 3.629 1.2985 6.9584 1.2985 4.1284 0 6.459-1.3318t2.3306-4.195q0-2.1974-1.2652-3.3294t-4.8609-1.931q-1.3318-0.29964-3.4959-0.69917-2.1308-0.39953-3.8954-0.86565-4.8942-1.2985-6.9584-3.7955-2.0309-2.5303-2.0309-6.1927 0-2.2973 0.93223-4.3282 0.96553-2.0309 2.8966-3.629 1.8645-1.5648 4.7277-2.4638 2.8966-0.93223 6.459-0.93223 3.3294 0 6.7254 0.83235 3.4293 0.79906 5.6933 1.9644v6.6921h-0.33294q-2.3972-1.7646-5.8264-2.9632-3.4293-1.2319-6.7254-1.2319-3.4293 0-5.7932 1.3318-2.3639 1.2985-2.3639 3.8954 0 2.2973 1.4316 3.4626 1.3983 1.1653 4.528 1.8978 1.7313 0.39953 3.8621 0.79906 2.1641 0.39953 3.5958 0.73247 4.3615 0.99881 6.7254 3.4293 2.3639 2.4638 2.3639 6.5256z" fill="#fff"/>
  <path d="m243.91 918.75h-4.7958l-3.3184-9.4325h-14.637l-3.3184 9.4325h-4.5685l12.319-33.843h6.0004l12.319 33.843zm-9.5006-13.296-5.9322-16.615-5.955 16.615h11.887z" fill="#fff"/>
  <path d="m269.3 918.75h-4.273v-2.6593q-1.841 1.591-3.8412 2.4774t-4.3412 0.88642q-4.5458 0-7.2278-3.5002-2.6593-3.5002-2.6593-9.7052 0-3.2275 0.90915-5.7504 0.93189-2.5229 2.5002-4.2958 1.5456-1.7274 3.5912-2.6365 2.0683-0.90915 4.273-0.90915 2.0001 0 3.5457 0.43185 1.5456 0.40912 3.2502 1.2955v-11.001h4.273v35.366zm-4.273-6.2504v-14.569q-1.7274-0.77278-3.0911-1.0682t-2.9775-0.29547q-3.5912 0-5.5913 2.5002t-2.0001 7.0914q0 4.523 1.5456 6.8868 1.5456 2.3411 4.9549 2.3411 1.8183 0 3.6821-0.7955 1.8638-0.81824 3.4775-2.091z" fill="#fff"/>
  <path d="m295.85 911.44q0 3.4775-2.8866 5.7049-2.8638 2.2274-7.8414 2.2274-2.8184 0-5.1822-0.65914-2.3411-0.68186-3.9321-1.4774v-4.7958h0.22729q2.0229 1.5228 4.5003 2.432 2.4774 0.88643 4.7503 0.88643 2.8184 0 4.4094-0.90916 1.591-0.90915 1.591-2.8638 0-1.5001-0.86369-2.2729-0.8637-0.77278-3.3184-1.3183-0.90915-0.20456-2.3865-0.47731-1.4546-0.27274-2.6593-0.59094-3.3411-0.88643-4.7503-2.5911-1.3865-1.7274-1.3865-4.2276 0-1.5683 0.63641-2.9548 0.65914-1.3864 1.9774-2.4774 1.2728-1.0682 3.2275-1.6819 1.9774-0.63641 4.4094-0.63641 2.2729 0 4.5912 0.56822 2.3411 0.5455 3.8866 1.341v4.5685h-0.22729q-1.6365-1.2046-3.9775-2.0229-2.3411-0.84096-4.5912-0.84096-2.3411 0-3.9548 0.90915-1.6137 0.88642-1.6137 2.6593 0 1.5683 0.97733 2.3638 0.95461 0.79551 3.0911 1.2955 1.1819 0.27275 2.6366 0.54549 1.4774 0.27275 2.4547 0.50003 2.9775 0.68187 4.5912 2.3411 1.6137 1.6819 1.6137 4.4548z" fill="#fff"/>
  <path d="m120.61 302.55h-32.108v79.244h-11.95v-79.244h-32.108v-10.622h76.166v10.622z" fill="#b3e5fc"/>
  <path d="m138.57 292.36h321.43v13.571h-321.43z" fill="#b3e5fc"/>
  <path d="m138.57 327.26h321.43v13.571h-321.43z" fill="#b3e5fc"/>
  <path d="m138.57 360.26h321.43v13.571h-321.43z" fill="#b3e5fc"/>
  <path d="m45.637 395.54h414.36v13.571h-414.36z" fill="#b3e5fc"/>
  <path d="m45.637 429.11h414.36v13.571h-414.36z" fill="#b3e5fc"/>
  <path d="m45.637 462.68h310.08v13.571h-310.08z" fill="#b3e5fc"/>
  <path d="m43.942 519h202.54v178.09h-202.54z" fill="#e1f5fe"/>
  <path d="m216.43 586.06-75 28.12-29.285-17.727-68.201 19.978v80.657h202.54v-91.076l-30.049-19.953z" fill="#b3e5fc" fill-rule="evenodd"/>
  <path d="m75.256 551.07a8.8388 8.8388 0 0 1 -8.8388 8.8388 8.8388 8.8388 0 0 1 -8.8388 -8.8388 8.8388 8.8388 0 0 1 8.8388 -8.8388 8.8388 8.8388 0 0 1 8.8388 8.8388z" fill="#b3e5fc"/>
  <path d="m270.4 519.65h189.6v13.571h-189.6z" fill="#b3e5fc"/>
  <path d="m270.4 555h189.6v13.571h-189.6z" fill="#b3e5fc"/>
  <path d="m270.4 587.33h189.6v13.571h-189.6z" fill="#b3e5fc"/>
  <path d="m270.4 622.68h136.07v13.571h-136.07z" fill="#b3e5fc"/>
  <path d="m270.4 689.35h189.6v13.571h-189.6z" fill="#b3e5fc"/>
  <path d="m45.132 722.69h414.87v13.571h-414.87z" fill="#b3e5fc"/>
  <path d="m45.132 759.83h319.15v13.571h-319.15z" fill="#b3e5fc"/>
  <path d="m737.35 186.47c-5.6408 0-10.214 4.5731-10.214 10.214 0 5.6408 4.5731 10.214 10.214 10.214 2.2058 0 4.2469-0.70161 5.9162-1.8905l5.6835 5.6835c0.5318 0.53182 1.3943 0.53182 1.9257 0l0.4821-0.48143c0.5243-0.52771 0.5238-1.3926-0.01-1.9238v-6.7e-4l-5.6842-5.6842c1.1917-1.6717 1.8932-3.7107 1.8932-5.9169 0-5.6408-4.5731-10.214-10.214-10.214zm0 2.725a7.4902 7.4902 0 0 1 7.4901 7.4902 7.4902 7.4902 0 0 1 -7.4901 7.4902 7.4902 7.4902 0 0 1 -7.4896 -7.4902 7.4902 7.4902 0 0 1 7.4896 -7.4902z" fill="#29b6f6"/>
  <path d="m890.94 9.8848h771.94v1038.4h-771.94z" fill="#eee"/>
  <path d="m909.12 30.088h735.92v131.32h-735.92z" fill="#fff"/>
  <path d="m1114.8 53.883h514.17v85.315h-514.17z" fill="#03a9f4"/>
  <path d="m1380.1 178.66h264.63v40.761h-264.63z" fill="#fff"/>
  <path d="m1380.1 234.13h264.63v422.28h-264.63z" fill="#03a9f4"/>
  <path d="m909.12 176.89h456.59v761.38h-456.59z" fill="#fff"/>
  <path d="m1380.1 674.55h264.63v264.16h-264.63z" fill="#fff"/>
  <path d="m1023 727.81h228.73v175.77h-228.73z" fill="#03a9f4"/>
  <path d="m1380.1 674.55h264.63v26.266h-264.63z" fill="#b3e5fc"/>
  <path d="m909.12 961.52h735.92v65.606h-735.92z" fill="#fff"/>
  <path d="m1359.8 116.06h-5.4006l-3.7369-10.622h-16.483l-3.7369 10.622h-5.1446l13.872-38.111h6.7571l13.873 38.111zm-10.699-14.973-6.6803-18.71-6.7059 18.71h13.386z" fill="#fff"/>
  <path d="m1388.4 116.06h-4.8118v-2.9946q-2.0732 1.7917-4.3256 2.7899t-4.8887 0.9982q-5.119 0-8.1392-3.9416-2.9946-3.9416-2.9946-10.929 0-3.6345 1.0238-6.4755 1.0494-2.8411 2.8155-4.8375 1.7404-1.9452 4.044-2.969 2.3291-1.0238 4.8118-1.0238 2.2524 0 3.9929 0.48631 1.7404 0.46071 3.6601 1.4589v-12.388h4.8118v39.826zm-4.8118-7.0386v-16.406q-1.9453-0.87023-3.481-1.203t-3.3529-0.33274q-4.044 0-6.2964 2.8155t-2.2524 7.9857q0 5.0934 1.7405 7.7553 1.7405 2.6363 5.5797 2.6363 2.0476 0 4.1464-0.89583 2.0988-0.92142 3.9161-2.3548z" fill="#fff"/>
  <path d="m1418.3 107.82q0 3.916-3.2506 6.4244-3.225 2.5083-8.8303 2.5083-3.1738 0-5.8357-0.74225-2.6363-0.76786-4.4279-1.6637v-5.4006h0.2559q2.278 1.7149 5.0679 2.7387 2.7898 0.99821 5.3493 0.99821 3.1738 0 4.9655-1.0238 1.7916-1.0238 1.7916-3.225 0-1.6893-0.9726-2.5595t-3.7369-1.4845q-1.0238-0.23036-2.6875-0.5375-1.638-0.30714-2.9946-0.66547-3.7624-0.99821-5.3493-2.9178-1.5613-1.9452-1.5613-4.7607 0-1.7661 0.7166-3.3274 0.7423-1.5613 2.2268-2.7899 1.4333-1.203 3.6345-1.894 2.2268-0.71666 4.9654-0.71666 2.5595 0 5.1702 0.63988 2.6363 0.61428 4.3768 1.5101v5.1446h-0.256q-1.8428-1.3565-4.4791-2.278-2.6363-0.94702-5.1702-0.94702-2.6363 0-4.4535 1.0238-1.8173 0.99821-1.8173 2.9946 0 1.7661 1.1006 2.6619 1.075 0.89583 3.4809 1.4589 1.331 0.30714 2.9691 0.61428 1.6636 0.30714 2.7642 0.56309 3.353 0.76786 5.1702 2.6363 1.8173 1.894 1.8173 5.0166z" fill="#fff"/>
  <path d="m1496.8 470.66h-7.0251l-4.8609-13.817h-21.441l-4.8609 13.817h-6.6921l18.045-49.575h8.7896l18.045 49.575zm-13.917-19.477-8.6897-24.338-8.7231 24.338h17.413z" fill="#fff"/>
  <path d="m1534 470.66h-6.2593v-3.8954q-2.6968 2.3306-5.6267 3.629-2.9299 1.2985-6.3592 1.2985-6.6587 0-10.587-5.1273-3.8954-5.1273-3.8954-14.217 0-4.7278 1.3317-8.4234 1.3651-3.6956 3.6624-6.2926 2.264-2.5304 5.2604-3.8621 3.0298-1.3318 6.2593-1.3318 2.9299 0 5.1938 0.63258 2.264 0.59929 4.7611 1.8978v-16.114h6.2593v51.805zm-6.2593-9.1558v-21.341q-2.5304-1.132-4.528-1.5648t-4.3615-0.43282q-5.2605 0-8.1903 3.6623-2.9299 3.6623-2.9299 10.388 0 6.6255 2.264 10.088 2.264 3.4293 7.2581 3.4293 2.6635 0 5.3936-1.1653 2.7301-1.1986 5.094-3.063z" fill="#fff"/>
  <path d="m1572.9 459.93q0 5.094-4.2283 8.3568-4.1951 3.2628-11.486 3.2628-4.1285 0-7.5911-0.96552-3.4292-0.99882-5.7598-2.1641v-7.025h0.3329q2.9632 2.2307 6.5922 3.5625 3.6291 1.2985 6.9585 1.2985 4.1284 0 6.459-1.3318t2.3306-4.195q0-2.1974-1.2652-3.3294t-4.8609-1.931q-1.3318-0.29964-3.4959-0.69917-2.1308-0.39953-3.8954-0.86565-4.8942-1.2985-6.9584-3.7955-2.031-2.5303-2.031-6.1927 0-2.2973 0.9323-4.3282 0.9655-2.0309 2.8966-3.629 1.8644-1.5648 4.7277-2.4638 2.8966-0.93223 6.459-0.93223 3.3294 0 6.7254 0.83235 3.4293 0.79906 5.6933 1.9644v6.6921h-0.333q-2.3971-1.7646-5.8264-2.9632-3.4293-1.2319-6.7254-1.2319-3.4293 0-5.7931 1.3318-2.3639 1.2985-2.3639 3.8954 0 2.2973 1.4316 3.4626 1.3984 1.1653 4.528 1.8978 1.7313 0.39953 3.8621 0.79906 2.1641 0.39952 3.5958 0.73246 4.3615 0.99882 6.7254 3.4293 2.3638 2.4638 2.3638 6.5256z" fill="#fff"/>
  <path d="m1127.1 833.02h-4.7958l-3.3184-9.4325h-14.637l-3.3184 9.4325h-4.5685l12.319-33.843h6.0004l12.319 33.843zm-9.5007-13.296-5.9322-16.615-5.9549 16.615h11.887z" fill="#fff"/>
  <path d="m1152.5 833.02h-4.273v-2.6593q-1.8411 1.591-3.8412 2.4774-2.0001 0.88643-4.3412 0.88643-4.5458 0-7.2278-3.5002-2.6592-3.5002-2.6592-9.7052 0-3.2275 0.9091-5.7504 0.9319-2.5229 2.5002-4.2958 1.5455-1.7274 3.5911-2.6365 2.0683-0.90916 4.273-0.90916 2.0002 0 3.5457 0.43185 1.5456 0.40912 3.2503 1.2955v-11.001h4.273v35.366zm-4.273-6.2504v-14.569q-1.7274-0.77278-3.0912-1.0682-1.3637-0.29548-2.9774-0.29548-3.5912 0-5.5913 2.5002-2.0002 2.5002-2.0002 7.0914 0 4.523 1.5456 6.8868 1.5456 2.3411 4.9549 2.3411 1.8183 0 3.6821-0.79551 1.8637-0.81824 3.4775-2.091z" fill="#fff"/>
  <path d="m1179.1 825.7q0 3.4775-2.8865 5.7049-2.8639 2.2274-7.8415 2.2274-2.8183 0-5.1821-0.65913-2.3411-0.68187-3.9321-1.4774v-4.7958h0.2273q2.0228 1.5228 4.5003 2.432 2.4774 0.88642 4.7503 0.88642 2.8184 0 4.4094-0.90915t1.591-2.8638q0-1.5001-0.8637-2.2729t-3.3184-1.3183q-0.9092-0.20456-2.3865-0.47731-1.4547-0.27275-2.6593-0.59095-3.3411-0.88642-4.7503-2.5911-1.3865-1.7274-1.3865-4.2276 0-1.5683 0.6364-2.9548 0.6592-1.3865 1.9774-2.4774 1.2729-1.0682 3.2275-1.6819 1.9774-0.63641 4.4094-0.63641 2.2729 0 4.5912 0.56822 2.3411 0.54549 3.8867 1.341v4.5685h-0.2273q-1.6365-1.2046-3.9776-2.0229-2.341-0.84097-4.5912-0.84097-2.3411 0-3.9548 0.90915-1.6137 0.88643-1.6137 2.6593 0 1.5683 0.9773 2.3638 0.9546 0.79551 3.0911 1.2956 1.1819 0.27274 2.6366 0.54549 1.4773 0.27274 2.4547 0.50003 2.9774 0.68187 4.5912 2.3411 1.6137 1.6819 1.6137 4.4548z" fill="#fff"/>
  <path d="m1003.5 206.84h-32.108v79.244h-11.95v-79.244h-32.108v-10.622h76.166v10.622z" fill="#b3e5fc"/>
  <path d="m1021.4 196.65h321.43v13.571h-321.43z" fill="#b3e5fc"/>
  <path d="m1021.4 231.55h321.43v13.571h-321.43z" fill="#b3e5fc"/>
  <path d="m1021.4 264.55h321.43v13.571h-321.43z" fill="#b3e5fc"/>
  <path d="m928.49 299.82h414.36v13.571h-414.36z" fill="#b3e5fc"/>
  <path d="m928.49 333.39h414.36v13.571h-414.36z" fill="#b3e5fc"/>
  <path d="m928.49 366.96h310.08v13.571h-310.08z" fill="#b3e5fc"/>
  <path d="m926.8 423.29h202.54v178.09h-202.54z" fill="#e1f5fe"/>
  <path d="m1099.3 490.35-75 28.12-29.285-17.727-68.201 19.978v80.657h202.54v-91.076l-30.049-19.953z" fill="#b3e5fc" fill-rule="evenodd"/>
  <path d="m958.11 455.36a8.8388 8.8388 0 0 1 -8.8388 8.8388 8.8388 8.8388 0 0 1 -8.8388 -8.8388 8.8388 8.8388 0 0 1 8.8388 -8.8388 8.8388 8.8388 0 0 1 8.8388 8.8388z" fill="#b3e5fc"/>
  <path d="m1153.3 423.93h189.6v13.571h-189.6z" fill="#b3e5fc"/>
  <path d="m1153.3 459.29h189.6v13.571h-189.6z" fill="#b3e5fc"/>
  <path d="m1153.3 491.61h189.6v13.571h-189.6z" fill="#b3e5fc"/>
  <path d="m1153.3 526.97h136.07v13.571h-136.07z" fill="#b3e5fc"/>
  <path d="m1153.3 593.64h189.6v13.571h-189.6z" fill="#b3e5fc"/>
  <path d="m927.99 626.97h414.87v13.571h-414.87z" fill="#b3e5fc"/>
  <path d="m927.99 664.12h319.15v13.571h-319.15z" fill="#b3e5fc"/>
  <path d="m1620.2 186.47c-5.6408 0-10.214 4.5731-10.214 10.214 0 5.6408 4.5731 10.214 10.214 10.214 2.2058 0 4.2469-0.70161 5.9162-1.8905l5.6835 5.6835c0.5318 0.53182 1.3943 0.53182 1.9257 0l0.4821-0.48143c0.5243-0.52771 0.5238-1.3926-0.01-1.9238v-6.7e-4l-5.6842-5.6842c1.1917-1.6717 1.8932-3.7107 1.8932-5.9169 0-5.6408-4.5731-10.214-10.214-10.214zm0 2.725a7.4902 7.4902 0 0 1 7.4901 7.4902 7.4902 7.4902 0 0 1 -7.4901 7.4902 7.4902 7.4902 0 0 1 -7.4896 -7.4902 7.4902 7.4902 0 0 1 7.4896 -7.4902z" fill="#29b6f6"/>
  <path d="m1775.8 9.8848h771.94v1038.4h-771.94z" fill="#eee"/>
  <path d="m1795.6 176.74h732.36v85.315h-732.36z" fill="#fff"/>
  <path d="m1794 30.088h735.92v131.32h-735.92z" fill="#fff"/>
  <path d="m1904.7 176.74h514.17v85.315h-514.17z" fill="#03a9f4"/>
  <path d="m2265 278.66h264.63v40.761h-264.63z" fill="#fff"/>
  <path d="m2265 334.13h264.63v198.03h-264.63z" fill="#03a9f4"/>
  <path d="m1794 276.89h456.59v665.42h-456.59z" fill="#fff"/>
  <path d="m2265 548.32h264.63v394.87h-264.63z" fill="#fff"/>
  <path d="m1812.2 296.45h228.73v175.77h-228.73z" fill="#03a9f4"/>
  <path d="m2265 548.32h264.63v26.266h-264.63z" fill="#b3e5fc"/>
  <path d="m1794 961.52h735.92v65.606h-735.92z" fill="#fff"/>
  <path d="m2149.8 238.91h-5.4006l-3.7368-10.622h-16.483l-3.7368 10.622h-5.1446l13.872-38.111h6.7571l13.872 38.111zm-10.699-14.973-6.6803-18.71-6.706 18.71h13.386z" fill="#fff"/>
  <path d="m2178.4 238.91h-4.8119v-2.9946q-2.0732 1.7917-4.3256 2.7899-2.2523 0.99821-4.8886 0.99821-5.119 0-8.1392-3.9416-2.9947-3.9416-2.9947-10.929 0-3.6345 1.0238-6.4756 1.0494-2.841 2.8155-4.8375 1.7405-1.9452 4.044-2.969 2.3292-1.0238 4.8119-1.0238 2.2524 0 3.9928 0.4863 1.7405 0.46071 3.6601 1.4589v-12.388h4.8119v39.826zm-4.8119-7.0386v-16.406q-1.9452-0.87023-3.4809-1.203-1.5357-0.33273-3.353-0.33273-4.044 0-6.2964 2.8154-2.2523 2.8155-2.2523 7.9857 0 5.0934 1.7404 7.7553 1.7405 2.6363 5.5798 2.6363 2.0476 0 4.1464-0.89582 2.0988-0.92142 3.916-2.3548z" fill="#fff"/>
  <path d="m2208.3 230.67q0 3.916-3.2506 6.4244-3.2249 2.5083-8.8303 2.5083-3.1737 0-5.8356-0.74226-2.6363-0.76785-4.428-1.6637v-5.4006h0.256q2.2779 1.7149 5.0678 2.7387 2.7899 0.99821 5.3494 0.99821 3.1738 0 4.9654-1.0238 1.7917-1.0238 1.7917-3.225 0-1.6893-0.9726-2.5595-0.9727-0.87023-3.7369-1.4845-1.0238-0.23036-2.6875-0.5375-1.6381-0.30714-2.9946-0.66547-3.7625-0.99821-5.3494-2.9178-1.5613-1.9452-1.5613-4.7607 0-1.7661 0.7167-3.3274 0.7422-1.5613 2.2267-2.7899 1.4334-1.203 3.6345-1.894 2.2268-0.71666 4.9655-0.71666 2.5595 0 5.1702 0.63987 2.6363 0.61428 4.3767 1.5101v5.1446h-0.2559q-1.8429-1.3565-4.4792-2.278-2.6362-0.94702-5.1702-0.94702-2.6362 0-4.4535 1.0238-1.8172 0.99821-1.8172 2.9946 0 1.7661 1.1005 2.6619 1.075 0.89583 3.481 1.4589 1.3309 0.30714 2.969 0.61428 1.6637 0.30714 2.7643 0.56309 3.3529 0.76785 5.1702 2.6363 1.8172 1.894 1.8172 5.0166z" fill="#fff"/>
  <path d="m2381.7 454.49h-7.025l-4.8609-13.817h-21.441l-4.861 13.817h-6.6921l18.045-49.575h8.7896l18.045 49.575zm-13.917-19.477-8.6897-24.338-8.723 24.338h17.413z" fill="#fff"/>
  <path d="m2418.9 454.49h-6.2593v-3.8954q-2.6968 2.3306-5.6266 3.629-2.9299 1.2985-6.3592 1.2985-6.6588 0-10.588-5.1273-3.8954-5.1273-3.8954-14.217 0-4.7277 1.3318-8.4234 1.365-3.6956 3.6623-6.2926 2.264-2.5303 5.2605-3.8621 3.0297-1.3318 6.2592-1.3318 2.9299 0 5.1939 0.63259 2.264 0.59929 4.761 1.8978v-16.114h6.2593v51.805zm-6.2593-9.1558v-21.341q-2.5303-1.132-4.5279-1.5648-1.9977-0.43282-4.3616-0.43282-5.2604 0-8.1903 3.6623-2.9298 3.6623-2.9298 10.388 0 6.6255 2.2639 10.088 2.264 3.4293 7.2581 3.4293 2.6636 0 5.3937-1.1653 2.7301-1.1986 5.0939-3.063z" fill="#fff"/>
  <path d="m2457.8 443.77q0 5.094-4.2284 8.3568-4.195 3.2628-11.486 3.2628-4.1284 0-7.591-0.96553-3.4293-0.99882-5.7599-2.1641v-7.025h0.333q2.9631 2.2307 6.5922 3.5625 3.629 1.2985 6.9584 1.2985 4.1285 0 6.4591-1.3318 2.3305-1.3318 2.3305-4.195 0-2.1974-1.2651-3.3294-1.2652-1.132-4.861-1.931-1.3317-0.29965-3.4958-0.69918-2.1308-0.39953-3.8954-0.86564-4.8942-1.2985-6.9585-3.7955-2.0309-2.5304-2.0309-6.1927 0-2.2973 0.9322-4.3282 0.9656-2.0309 2.8966-3.629 1.8645-1.5648 4.7278-2.4638 2.8965-0.93223 6.459-0.93223 3.3294 0 6.7254 0.83235 3.4293 0.79905 5.6932 1.9643v6.6921h-0.3329q-2.3972-1.7646-5.8264-2.9632-3.4293-1.2319-6.7254-1.2319-3.4293 0-5.7932 1.3318-2.3639 1.2985-2.3639 3.8954 0 2.2973 1.4317 3.4626 1.3983 1.1653 4.528 1.8978 1.7313 0.39952 3.8621 0.79905 2.1641 0.39953 3.5957 0.73247 4.3615 0.99882 6.7254 3.4293 2.3639 2.4638 2.3639 6.5256z" fill="#fff"/>
  <path d="m1916.3 401.66h-4.7958l-3.3184-9.4324h-14.637l-3.3184 9.4324h-4.5685l12.319-33.843h6.0004l12.319 33.843zm-9.5007-13.296-5.9322-16.615-5.9549 16.615h11.887z" fill="#fff"/>
  <path d="m1941.7 401.66h-4.2731v-2.6593q-1.841 1.591-3.8411 2.4774-2.0002 0.88643-4.3412 0.88643-4.5458 0-7.2278-3.5002-2.6593-3.5002-2.6593-9.7052 0-3.2275 0.9092-5.7504 0.9319-2.5229 2.5002-4.2958 1.5455-1.7274 3.5911-2.6365 2.0683-0.90916 4.273-0.90916 2.0002 0 3.5457 0.43185 1.5456 0.40912 3.2502 1.2955v-11.001h4.2731v35.366zm-4.2731-6.2504v-14.569q-1.7274-0.77278-3.0911-1.0683-1.3637-0.29547-2.9775-0.29547-3.5911 0-5.5912 2.5002-2.0002 2.5002-2.0002 7.0914 0 4.523 1.5456 6.8868 1.5455 2.3411 4.9549 2.3411 1.8183 0 3.682-0.79551 1.8638-0.81824 3.4775-2.091z" fill="#fff"/>
  <path d="m1968.3 394.35q0 3.4775-2.8865 5.7049-2.8639 2.2274-7.8415 2.2274-2.8184 0-5.1822-0.65913-2.341-0.68187-3.932-1.4774v-4.7958h0.2272q2.0229 1.5228 4.5003 2.432 2.4775 0.88642 4.7504 0.88642 2.8183 0 4.4094-0.90915 1.591-0.90915 1.591-2.8638 0-1.5001-0.8637-2.2729t-3.3184-1.3183q-0.9092-0.20456-2.3865-0.4773-1.4547-0.27275-2.6593-0.59095-3.3412-0.88642-4.7503-2.5911-1.3865-1.7274-1.3865-4.2276 0-1.5683 0.6364-2.9548 0.6591-1.3865 1.9774-2.4774 1.2728-1.0683 3.2275-1.6819 1.9774-0.63641 4.4094-0.63641 2.2729 0 4.5912 0.56822 2.3411 0.54549 3.8866 1.341v4.5685h-0.2272q-1.6365-1.2046-3.9776-2.0229-2.3411-0.84097-4.5912-0.84097-2.3411 0-3.9548 0.90915-1.6138 0.88643-1.6138 2.6593 0 1.5683 0.9774 2.3638 0.9546 0.79551 3.0911 1.2955 1.1819 0.27275 2.6365 0.5455 1.4774 0.27274 2.4547 0.50003 2.9775 0.68186 4.5913 2.3411 1.6137 1.6819 1.6137 4.4548z" fill="#fff"/>
  <path d="m2066.4 296.65h161.35v13.571h-161.35z" fill="#b3e5fc"/>
  <path d="m2066.4 331.55h161.35v13.571h-161.35z" fill="#b3e5fc"/>
  <path d="m2066.4 364.55h161.35v13.571h-161.35z" fill="#b3e5fc"/>
  <path d="m1813.4 498.43h414.36v13.571h-414.36z" fill="#b3e5fc"/>
  <path d="m1813.4 532h414.36v13.571h-414.36z" fill="#b3e5fc"/>
  <path d="m1813.4 565.58h310.08v13.571h-310.08z" fill="#b3e5fc"/>
  <path d="m1811.7 651.86h202.54v178.09h-202.54z" fill="#e1f5fe"/>
  <path d="m1984.2 718.93-75 28.12-29.285-17.727-68.201 19.978v80.657h202.54v-91.076l-30.049-19.953z" fill="#b3e5fc" fill-rule="evenodd"/>
  <path d="m1843 683.94a8.8388 8.8388 0 0 1 -8.8389 8.8388 8.8388 8.8388 0 0 1 -8.8388 -8.8388 8.8388 8.8388 0 0 1 8.8388 -8.8388 8.8388 8.8388 0 0 1 8.8389 8.8388z" fill="#b3e5fc"/>
  <path d="m2038.1 652.51h189.6v13.571h-189.6z" fill="#b3e5fc"/>
  <path d="m2038.1 687.86h189.6v13.571h-189.6z" fill="#b3e5fc"/>
  <path d="m2038.1 720.19h189.6v13.571h-189.6z" fill="#b3e5fc"/>
  <path d="m2038.1 755.54h136.07v13.571h-136.07z" fill="#b3e5fc"/>
  <path d="m2038.1 822.21h189.6v13.571h-189.6z" fill="#b3e5fc"/>
  <path d="m1812.9 855.55h414.87v13.571h-414.87z" fill="#b3e5fc"/>
  <path d="m1812.9 892.69h319.15v13.571h-319.15z" fill="#b3e5fc"/>
  <path d="m2505.1 286.48c-5.6408 0-10.214 4.5731-10.214 10.214 0 5.6408 4.5731 10.214 10.214 10.214 2.2058 0 4.2469-0.70161 5.9162-1.8905l5.6835 5.6835c0.5318 0.53182 1.3943 0.53182 1.9257 0l0.4821-0.48143c0.5243-0.52771 0.5238-1.3926-0.01-1.9238v-6.7e-4l-5.6842-5.6842c1.1917-1.6717 1.8932-3.7107 1.8932-5.9169 0-5.6408-4.5731-10.214-10.214-10.214zm0 2.725a7.4902 7.4902 0 0 1 7.4901 7.4902 7.4902 7.4902 0 0 1 -7.4901 7.4902 7.4902 7.4902 0 0 1 -7.4896 -7.4902 7.4902 7.4902 0 0 1 7.4896 -7.4902z" fill="#29b6f6"/>
  <path d="m2066.4 393.84h161.35v13.571h-161.35z" fill="#b3e5fc"/>
  <path d="m2066.4 423.84h113.09v13.571h-113.09z" fill="#b3e5fc"/>
  <path d="m8.0812 1165.5h771.94v1038.4h-771.94z" fill="#eee"/>
  <path d="m26.264 1185.7h735.92v131.32h-735.92z" fill="#fff"/>
  <path d="m497.27 1334.3h264.63v40.761h-264.63z" fill="#fff"/>
  <path d="m497.27 1389.7h264.63v187.64h-264.63z" fill="#fff"/>
  <path d="m26.264 1390.4h456.59v704.26h-456.59z" fill="#fff"/>
  <path d="m497.27 1591.8h264.63v503.06h-264.63z" fill="#fff"/>
  <path d="m46.497 1969.7h159.52v105.16h-159.52z" fill="#03a9f4"/>
  <path d="m497.27 1591.8h264.63v26.266h-264.63z" fill="#b3e5fc"/>
  <path d="m26.264 2117.1h735.92v65.606h-735.92z" fill="#fff"/>
  <path d="m115.61 2039.6h-4.7958l-3.3184-9.4325h-14.637l-3.3184 9.4325h-4.5685l12.319-33.843h6.0004l12.319 33.843zm-9.5006-13.296-5.9322-16.615-5.9549 16.615h11.887z" fill="#fff"/>
  <path d="m141 2039.6h-4.273v-2.6593q-1.841 1.591-3.8412 2.4775-2.0001 0.8864-4.3412 0.8864-4.5458 0-7.2278-3.5003-2.6593-3.5002-2.6593-9.7052 0-3.2275 0.90915-5.7504 0.93188-2.5229 2.5002-4.2957 1.5456-1.7274 3.5912-2.6365 2.0683-0.9092 4.273-0.9092 2.0001 0 3.5457 0.4319 1.5456 0.4091 3.2502 1.2955v-11.001h4.273v35.366zm-4.273-6.2504v-14.569q-1.7274-0.7728-3.0911-1.0683-1.3637-0.2954-2.9775-0.2954-3.5912 0-5.5913 2.5001-2.0001 2.5002-2.0001 7.0914 0 4.5231 1.5456 6.8869 1.5456 2.341 4.9549 2.341 1.8183 0 3.6821-0.7955 1.8638-0.8182 3.4775-2.091z" fill="#fff"/>
  <path d="m167.54 2032.3q0 3.4775-2.8866 5.7049-2.8638 2.2275-7.8414 2.2275-2.8184 0-5.1822-0.6592-2.3411-0.6818-3.9321-1.4773v-4.7958h0.22728q2.0229 1.5228 4.5003 2.432 2.4774 0.8864 4.7503 0.8864 2.8184 0 4.4094-0.9092 1.591-0.9091 1.591-2.8638 0-1.5001-0.86369-2.2729-0.8637-0.7728-3.3184-1.3183-0.90915-0.2045-2.3865-0.4773-1.4546-0.2727-2.6593-0.5909-3.3411-0.8864-4.7503-2.5911-1.3865-1.7274-1.3865-4.2276 0-1.5682 0.63641-2.9547 0.65913-1.3865 1.9774-2.4774 1.2728-1.0683 3.2275-1.682 1.9774-0.6364 4.4094-0.6364 2.2729 0 4.5912 0.5682 2.3411 0.5455 3.8866 1.341v4.5685h-0.22728q-1.6365-1.2046-3.9776-2.0228-2.3411-0.841-4.5912-0.841-2.3411 0-3.9548 0.9092-1.6138 0.8864-1.6138 2.6592 0 1.5683 0.97734 2.3638 0.95461 0.7955 3.0911 1.2956 1.1819 0.2727 2.6365 0.5455 1.4774 0.2727 2.4547 0.5 2.9775 0.6819 4.5912 2.3411 1.6137 1.6819 1.6137 4.4548z" fill="#fff"/>
  <path d="m120.61 1423.2h-32.108v79.244h-11.95v-79.244h-32.108v-10.622h76.166v10.622z" fill="#b3e5fc"/>
  <path d="m138.57 1413h321.43v13.571h-321.43z" fill="#b3e5fc"/>
  <path d="m138.57 1447.9h321.43v13.571h-321.43z" fill="#b3e5fc"/>
  <path d="m138.57 1480.9h321.43v13.571h-321.43z" fill="#b3e5fc"/>
  <path d="m45.637 1516.2h414.36v13.571h-414.36z" fill="#b3e5fc"/>
  <path d="m45.637 1549.8h414.36v13.571h-414.36z" fill="#b3e5fc"/>
  <path d="m45.637 1583.4h310.08v13.571h-310.08z" fill="#b3e5fc"/>
  <path d="m43.942 1692.4h202.54v178.09h-202.54z" fill="#e1f5fe"/>
  <path d="m216.43 1759.5-75 28.12-29.285-17.727-68.201 19.978v80.657h202.54v-91.076l-30.049-19.953z" fill="#b3e5fc" fill-rule="evenodd"/>
  <path d="m75.256 1724.5a8.8388 8.8388 0 0 1 -8.8388 8.8388 8.8388 8.8388 0 0 1 -8.8388 -8.8388 8.8388 8.8388 0 0 1 8.8388 -8.8389 8.8388 8.8388 0 0 1 8.8388 8.8389z" fill="#b3e5fc"/>
  <path d="m270.4 1693h189.6v13.571h-189.6z" fill="#b3e5fc"/>
  <path d="m270.4 1728.4h189.6v13.572h-189.6z" fill="#b3e5fc"/>
  <path d="m270.4 1760.7h189.6v13.571h-189.6z" fill="#b3e5fc"/>
  <path d="m270.4 1796.1h136.07v13.571h-136.07z" fill="#b3e5fc"/>
  <path d="m270.4 1862.8h189.6v13.571h-189.6z" fill="#b3e5fc"/>
  <path d="m45.132 1896.1h414.87v13.572h-414.87z" fill="#b3e5fc"/>
  <path d="m45.132 1933.2h319.15v13.571h-319.15z" fill="#b3e5fc"/>
  <path d="m737.35 1342.1c-5.6408 0-10.214 4.5731-10.214 10.214s4.5731 10.214 10.214 10.214c2.2058 0 4.2469-0.7016 5.9162-1.8905l5.6835 5.6835c0.5318 0.5318 1.3943 0.5318 1.9257 0l0.4821-0.4814c0.5243-0.5278 0.5238-1.3927-0.01-1.9238v-7e-4l-5.6842-5.6841c1.1917-1.6717 1.8932-3.7107 1.8932-5.9169 0-5.6408-4.5731-10.214-10.214-10.214zm0 2.725a7.4902 7.4902 0 0 1 7.4901 7.4902 7.4902 7.4902 0 0 1 -7.4901 7.4902 7.4902 7.4902 0 0 1 -7.4896 -7.4902 7.4902 7.4902 0 0 1 7.4896 -7.4902z" fill="#29b6f6"/>
  <path d="m890.94 1165.5h771.94v1038.4h-771.94z" fill="#eee"/>
  <path d="m909.12 1185.7h735.92v131.32h-735.92z" fill="#fff"/>
  <path d="m1477.3 1334.3h167.49v40.761h-167.49z" fill="#fff"/>
  <path d="m1477.3 1389.7h167.49v702.28h-167.49z" fill="#03a9f4"/>
  <path d="m909.12 1332.5h549.52v761.38h-549.52z" fill="#fff"/>
  <path d="m940.29 1873.4h228.73v175.77h-228.73z" fill="#03a9f4"/>
  <path d="m909.12 2117.1h735.92v65.606h-735.92z" fill="#fff"/>
  <path d="m1545.4 1766.3h-7.025l-4.861-13.817h-21.441l-4.8609 13.817h-6.6921l18.045-49.575h8.7896l18.045 49.575zm-13.917-19.477-8.6897-24.338-8.7231 24.338h17.413z" fill="#fff"/>
  <path d="m1582.6 1766.3h-6.2593v-3.8954q-2.6968 2.3306-5.6267 3.6291-2.9299 1.2984-6.3591 1.2984-6.6588 0-10.588-5.1272-3.8954-5.1273-3.8954-14.217 0-4.7277 1.3317-8.4233 1.3651-3.6957 3.6624-6.2926 2.264-2.5304 5.2604-3.8621 3.0298-1.3318 6.2593-1.3318 2.9299 0 5.1939 0.6326 2.2639 0.5993 4.761 1.8978v-16.114h6.2593v51.805zm-6.2593-9.1558v-21.342q-2.5303-1.132-4.528-1.5648-1.9976-0.4328-4.3615-0.4328-5.2604 0-8.1903 3.6623-2.9299 3.6624-2.9299 10.388 0 6.6255 2.264 10.088 2.264 3.4293 7.2581 3.4293 2.6635 0 5.3936-1.1653 2.7301-1.1986 5.094-3.063z" fill="#fff"/>
  <path d="m1621.5 1755.5q0 5.0939-4.2283 8.3567-4.195 3.2629-11.486 3.2629-4.1285 0-7.5911-0.9656-3.4292-0.9988-5.7598-2.1641v-7.025h0.3329q2.9632 2.2307 6.5922 3.5624 3.6291 1.2985 6.9585 1.2985 4.1284 0 6.459-1.3317 2.3306-1.3318 2.3306-4.1951 0-2.1974-1.2652-3.3294t-4.8609-1.931q-1.3318-0.2997-3.4959-0.6992-2.1308-0.3995-3.8954-0.8657-4.8942-1.2984-6.9584-3.7955-2.0309-2.5303-2.0309-6.1926 0-2.2973 0.9322-4.3283 0.9655-2.0309 2.8966-3.629 1.8644-1.5648 4.7277-2.4638 2.8966-0.9322 6.459-0.9322 3.3294 0 6.7254 0.8324 3.4293 0.799 5.6933 1.9643v6.6921h-0.3329q-2.3972-1.7646-5.8265-2.9632-3.4293-1.2319-6.7254-1.2319-3.4293 0-5.7931 1.3318-2.3639 1.2985-2.3639 3.8954 0 2.2973 1.4316 3.4626 1.3984 1.1653 4.528 1.8977 1.7313 0.3996 3.8621 0.7991 2.1641 0.3995 3.5958 0.7325 4.3615 0.9988 6.7254 3.4292 2.3638 2.4638 2.3638 6.5257z" fill="#fff"/>
  <path d="m1044.4 1978.6h-4.7958l-3.3184-9.4325h-14.637l-3.3184 9.4325h-4.5685l12.319-33.843h6.0005l12.319 33.843zm-9.5007-13.296-5.9322-16.615-5.9549 16.615h11.887z" fill="#fff"/>
  <path d="m1069.8 1978.6h-4.2731v-2.6593q-1.841 1.591-3.8411 2.4774-2.0002 0.8865-4.3412 0.8865-4.5458 0-7.2278-3.5003-2.6593-3.5002-2.6593-9.7052 0-3.2275 0.9092-5.7504 0.9319-2.5229 2.5002-4.2957 1.5455-1.7274 3.5911-2.6366 2.0683-0.9091 4.273-0.9091 2.0002 0 3.5457 0.4318 1.5456 0.4092 3.2502 1.2956v-11.001h4.2731v35.366zm-4.2731-6.2504v-14.569q-1.7273-0.7728-3.0911-1.0683-1.3637-0.2954-2.9774-0.2954-3.5912 0-5.5913 2.5001-2.0002 2.5002-2.0002 7.0914 0 4.523 1.5456 6.8868 1.5455 2.3411 4.9549 2.3411 1.8183 0 3.682-0.7955 1.8638-0.8182 3.4775-2.091z" fill="#fff"/>
  <path d="m1096.3 1971.3q0 3.4775-2.8865 5.7049-2.8639 2.2275-7.8415 2.2275-2.8184 0-5.1822-0.6592-2.341-0.6818-3.932-1.4774v-4.7957h0.2273q2.0228 1.5228 4.5003 2.4319 2.4774 0.8865 4.7503 0.8865 2.8184 0 4.4094-0.9092 1.591-0.9091 1.591-2.8638 0-1.5001-0.8637-2.2729t-3.3184-1.3183q-0.9092-0.2045-2.3865-0.4773-1.4547-0.2727-2.6593-0.5909-3.3411-0.8864-4.7503-2.5911-1.3865-1.7274-1.3865-4.2276 0-1.5682 0.6364-2.9547 0.6591-1.3865 1.9774-2.4774 1.2728-1.0683 3.2275-1.682 1.9774-0.6364 4.4094-0.6364 2.2729 0 4.5912 0.5682 2.3411 0.5455 3.8867 1.341v4.5685h-0.2273q-1.6365-1.2046-3.9776-2.0228-2.341-0.841-4.5912-0.841-2.3411 0-3.9548 0.9091-1.6138 0.8865-1.6138 2.6593 0 1.5683 0.9774 2.3638 0.9546 0.7955 3.0911 1.2956 1.1819 0.2727 2.6365 0.5454 1.4774 0.2728 2.4548 0.5001 2.9774 0.6818 4.5912 2.3411 1.6137 1.6819 1.6137 4.4548z" fill="#fff"/>
  <path d="m1003.5 1362.5h-32.108v79.244h-11.95v-79.244h-32.108v-10.622h76.166v10.622z" fill="#b3e5fc"/>
  <path d="m1023.4 1352.3h410.92v13.571h-410.92z" fill="#b3e5fc"/>
  <path d="m1023.4 1387.2h410.92v13.571h-410.92z" fill="#b3e5fc"/>
  <path d="m1023.4 1420.2h410.92v13.571h-410.92z" fill="#b3e5fc"/>
  <path d="m928.49 1455.4h505.79v13.572h-505.79z" fill="#b3e5fc"/>
  <path d="m928.49 1489h505.79v13.572h-505.79z" fill="#b3e5fc"/>
  <path d="m928.49 1522.6h378.49v13.572h-378.49z" fill="#b3e5fc"/>
  <path d="m926.8 1578.9h202.54v178.09h-202.54z" fill="#e1f5fe"/>
  <path d="m1099.3 1646-75 28.12-29.285-17.727-68.201 19.978v80.657h202.54v-91.076l-30.049-19.953z" fill="#b3e5fc" fill-rule="evenodd"/>
  <path d="m958.11 1611a8.8388 8.8388 0 0 1 -8.8388 8.8389 8.8388 8.8388 0 0 1 -8.8388 -8.8389 8.8388 8.8388 0 0 1 8.8388 -8.8388 8.8388 8.8388 0 0 1 8.8388 8.8388z" fill="#b3e5fc"/>
  <path d="m1153.3 1579.5h279.6v13.571h-279.6z" fill="#b3e5fc"/>
  <path d="m1153.3 1614.9h279.6v13.571h-279.6z" fill="#b3e5fc"/>
  <path d="m1153.3 1647.2h279.6v13.571h-279.6z" fill="#b3e5fc"/>
  <path d="m1153.3 1682.6h200.65v13.571h-200.65z" fill="#b3e5fc"/>
  <path d="m1153.3 1749.3h279.6v13.572h-279.6z" fill="#b3e5fc"/>
  <path d="m927.99 1782.6h503.44v13.572h-503.44z" fill="#b3e5fc"/>
  <path d="m927.99 1819.7h319.15v13.572h-319.15z" fill="#b3e5fc"/>
  <path d="m1620.2 1342.1c-5.6408 0-10.214 4.5731-10.214 10.214s4.5731 10.214 10.214 10.214c2.2058 0 4.2469-0.7016 5.9162-1.8905l5.6835 5.6835c0.5318 0.5318 1.3943 0.5318 1.9257 0l0.4821-0.4814c0.5243-0.5278 0.5238-1.3927-0.01-1.9238v-7e-4l-5.6842-5.6841c1.1917-1.6717 1.8932-3.7107 1.8932-5.9169 0-5.6408-4.5731-10.214-10.214-10.214zm0 2.725a7.4902 7.4902 0 0 1 7.4901 7.4902 7.4902 7.4902 0 0 1 -7.4901 7.4902 7.4902 7.4902 0 0 1 -7.4896 -7.4902 7.4902 7.4902 0 0 1 7.4896 -7.4902z" fill="#29b6f6"/>
  <path d="m1775.8 1165.5h771.94v1038.4h-771.94z" fill="#eee"/>
  <path d="m1794 1185.7h735.92v131.32h-735.92z" fill="#fff"/>
  <path d="m2265 1334.9h264.63v40.761h-264.63z" fill="#fff"/>
  <path d="m2265 1390.4h264.63v198.03h-264.63z" fill="#03a9f4"/>
  <path d="m1794 1333.1h456.59v766.81h-456.59z" fill="#fff"/>
  <path d="m2265 1604.6h264.63v494.23h-264.63z" fill="#fff"/>
  <path d="m2265 1604.6h264.63v26.266h-264.63z" fill="#b3e5fc"/>
  <path d="m1794 2117.1h735.92v65.606h-735.92z" fill="#fff"/>
  <path d="m2381.7 1510.7h-7.025l-4.8609-13.817h-21.441l-4.861 13.817h-6.6921l18.045-49.575h8.7896l18.045 49.575zm-13.917-19.477-8.6897-24.338-8.723 24.338h17.413z" fill="#fff"/>
  <path d="m2418.9 1510.7h-6.2593v-3.8954q-2.6968 2.3306-5.6266 3.629-2.9299 1.2985-6.3592 1.2985-6.6588 0-10.588-5.1273-3.8954-5.1273-3.8954-14.216 0-4.7278 1.3318-8.4234 1.365-3.6956 3.6623-6.2925 2.264-2.5304 5.2605-3.8621 3.0297-1.3318 6.2592-1.3318 2.9299 0 5.1939 0.6326 2.264 0.5993 4.761 1.8977v-16.114h6.2593v51.806zm-6.2593-9.1559v-21.341q-2.5303-1.132-4.5279-1.5648-1.9977-0.4328-4.3616-0.4328-5.2604 0-8.1903 3.6623-2.9298 3.6623-2.9298 10.388 0 6.6255 2.2639 10.088 2.264 3.4293 7.2581 3.4293 2.6636 0 5.3937-1.1653 2.7301-1.1986 5.0939-3.0631z" fill="#fff"/>
  <path d="m2457.8 1500q0 5.094-4.2284 8.3568-4.195 3.2628-11.486 3.2628-4.1284 0-7.591-0.9655-3.4293-0.9988-5.7599-2.1641v-7.025h0.333q2.9631 2.2307 6.5922 3.5624 3.629 1.2985 6.9584 1.2985 4.1285 0 6.4591-1.3318 2.3305-1.3317 2.3305-4.195 0-2.1974-1.2651-3.3294-1.2652-1.132-4.861-1.9311-1.3317-0.2996-3.4958-0.6991-2.1308-0.3996-3.8954-0.8657-4.8942-1.2985-6.9585-3.7955-2.0309-2.5303-2.0309-6.1927 0-2.2973 0.9322-4.3282 0.9656-2.0309 2.8966-3.629 1.8645-1.5649 4.7278-2.4638 2.8965-0.9322 6.459-0.9322 3.3294 0 6.7254 0.8323 3.4293 0.7991 5.6932 1.9644v6.6921h-0.3329q-2.3972-1.7646-5.8264-2.9632-3.4293-1.2319-6.7254-1.2319-3.4293 0-5.7932 1.3318-2.3639 1.2984-2.3639 3.8954 0 2.2973 1.4317 3.4625 1.3983 1.1653 4.528 1.8978 1.7313 0.3995 3.8621 0.7991 2.1641 0.3995 3.5957 0.7324 4.3615 0.9988 6.7254 3.4293 2.3639 2.4638 2.3639 6.5256z" fill="#fff"/>
  <path d="m1907.9 1419.6h228.73v175.77h-228.73z" fill="#03a9f4"/>
  <path d="m2012 1524.8h-4.7958l-3.3184-9.4324h-14.637l-3.3184 9.4324h-4.5685l12.319-33.843h6.0004l12.319 33.843zm-9.5007-13.296-5.9322-16.615-5.9549 16.615h11.887z" fill="#fff"/>
  <path d="m2037.4 1524.8h-4.2731v-2.6592q-1.841 1.591-3.8411 2.4774-2.0002 0.8864-4.3412 0.8864-4.5458 0-7.2278-3.5002-2.6593-3.5003-2.6593-9.7052 0-3.2275 0.9092-5.7504 0.9319-2.5229 2.5001-4.2958 1.5456-1.7273 3.5912-2.6365 2.0683-0.9092 4.273-0.9092 2.0002 0 3.5457 0.4319 1.5456 0.4091 3.2502 1.2955v-11.001h4.2731v35.366zm-4.2731-6.2504v-14.569q-1.7274-0.7727-3.0911-1.0682t-2.9775-0.2955q-3.5911 0-5.5912 2.5002-2.0002 2.5001-2.0002 7.0914 0 4.523 1.5456 6.8868 1.5455 2.3411 4.9549 2.3411 1.8183 0 3.682-0.7955 1.8638-0.8183 3.4775-2.0911z" fill="#fff"/>
  <path d="m2064 1517.5q0 3.4776-2.8865 5.705-2.8639 2.2274-7.8415 2.2274-2.8184 0-5.1822-0.6591-2.341-0.6819-3.932-1.4774v-4.7958h0.2272q2.0229 1.5228 4.5003 2.432 2.4775 0.8864 4.7504 0.8864 2.8183 0 4.4094-0.9091 1.591-0.9092 1.591-2.8639 0-1.5001-0.8637-2.2728-0.8637-0.7728-3.3184-1.3183-0.9092-0.2046-2.3865-0.4773-1.4547-0.2728-2.6593-0.591-3.3412-0.8864-4.7503-2.5911-1.3865-1.7273-1.3865-4.2275 0-1.5683 0.6364-2.9548 0.6591-1.3864 1.9774-2.4774 1.2728-1.0683 3.2275-1.6819 1.9774-0.6364 4.4094-0.6364 2.2729 0 4.5912 0.5682 2.3411 0.5455 3.8866 1.341v4.5685h-0.2272q-1.6365-1.2047-3.9776-2.0229-2.3411-0.841-4.5912-0.841-2.3411 0-3.9548 0.9092-1.6138 0.8864-1.6138 2.6593 0 1.5683 0.9774 2.3638 0.9546 0.7955 3.0911 1.2955 1.1819 0.2728 2.6365 0.5455 1.4774 0.2727 2.4547 0.5 2.9775 0.6819 4.5913 2.3411 1.6137 1.6819 1.6137 4.4548z" fill="#fff"/>
  <path d="m1811.2 1352.9h415.85v13.571h-415.85z" fill="#b3e5fc"/>
  <path d="m1811.2 1387.8h362.8v13.571h-362.8z" fill="#b3e5fc"/>
  <path d="m1813.4 1614h414.36v13.571h-414.36z" fill="#b3e5fc"/>
  <path d="m1813.4 1647.6h414.36v13.571h-414.36z" fill="#b3e5fc"/>
  <path d="m1813.4 1681.1h310.08v13.572h-310.08z" fill="#b3e5fc"/>
  <path d="m1811.7 1814.8h202.54v178.09h-202.54z" fill="#e1f5fe"/>
  <path d="m1984.2 1881.8-75 28.12-29.285-17.727-68.201 19.978v80.657h202.54v-91.076l-30.049-19.953z" fill="#b3e5fc" fill-rule="evenodd"/>
  <path d="m1843 1846.8a8.8388 8.8388 0 0 1 -8.8389 8.8388 8.8388 8.8388 0 0 1 -8.8388 -8.8388 8.8388 8.8388 0 0 1 8.8388 -8.8389 8.8388 8.8388 0 0 1 8.8389 8.8389z" fill="#b3e5fc"/>
  <path d="m2038.1 1815.4h189.6v13.571h-189.6z" fill="#b3e5fc"/>
  <path d="m2038.1 1850.8h189.6v13.572h-189.6z" fill="#b3e5fc"/>
  <path d="m2038.1 1883.1h189.6v13.571h-189.6z" fill="#b3e5fc"/>
  <path d="m2038.1 1918.5h136.07v13.572h-136.07z" fill="#b3e5fc"/>
  <path d="m2038.1 1985.1h189.6v13.571h-189.6z" fill="#b3e5fc"/>
  <path d="m1812.9 2018.5h414.87v13.571h-414.87z" fill="#b3e5fc"/>
  <path d="m1812.9 2055.6h319.15v13.571h-319.15z" fill="#b3e5fc"/>
  <path d="m2505.1 1342.7c-5.6408 0-10.214 4.5731-10.214 10.214s4.5731 10.214 10.214 10.214c2.2058 0 4.2469-0.7016 5.9162-1.8905l5.6835 5.6835c0.5318 0.5318 1.3943 0.5318 1.9257 0l0.4821-0.4814c0.5243-0.5278 0.5238-1.3927-0.01-1.9238v-7e-4l-5.6842-5.6841c1.1917-1.6717 1.8932-3.7107 1.8932-5.9169 0-5.6408-4.5731-10.214-10.214-10.214zm0 2.725a7.4902 7.4902 0 0 1 7.4901 7.4902 7.4902 7.4902 0 0 1 -7.4901 7.4902 7.4902 7.4902 0 0 1 -7.4896 -7.4902 7.4902 7.4902 0 0 1 7.4896 -7.4902z" fill="#29b6f6"/>
  <path d="m1196.6 1873.4h228.73v175.77h-228.73z" fill="#03a9f4"/>
  <path d="m1300.7 1978.6h-4.7958l-3.3184-9.4325h-14.637l-3.3185 9.4325h-4.5684l12.319-33.843h6.0004l12.319 33.843zm-9.5006-13.296-5.9323-16.615-5.9549 16.615h11.887z" fill="#fff"/>
  <path d="m1326.1 1978.6h-4.273v-2.6593q-1.8411 1.591-3.8412 2.4774-2.0001 0.8865-4.3412 0.8865-4.5458 0-7.2278-3.5003-2.6592-3.5002-2.6592-9.7052 0-3.2275 0.9091-5.7504 0.9319-2.5229 2.5002-4.2957 1.5455-1.7274 3.5911-2.6366 2.0684-0.9091 4.2731-0.9091 2.0001 0 3.5456 0.4318 1.5456 0.4092 3.2503 1.2956v-11.001h4.273v35.366zm-4.273-6.2504v-14.569q-1.7274-0.7728-3.0911-1.0683-1.3638-0.2954-2.9775-0.2954-3.5912 0-5.5913 2.5001-2.0001 2.5002-2.0001 7.0914 0 4.523 1.5455 6.8868 1.5456 2.3411 4.9549 2.3411 1.8183 0 3.6821-0.7955 1.8637-0.8182 3.4775-2.091z" fill="#fff"/>
  <path d="m1352.6 1971.3q0 3.4775-2.8865 5.7049-2.8638 2.2275-7.8415 2.2275-2.8183 0-5.1821-0.6592-2.3411-0.6818-3.9321-1.4774v-4.7957h0.2273q2.0228 1.5228 4.5003 2.4319 2.4774 0.8865 4.7503 0.8865 2.8184 0 4.4094-0.9092 1.591-0.9091 1.591-2.8638 0-1.5001-0.8637-2.2729t-3.3184-1.3183q-0.9091-0.2045-2.3865-0.4773-1.4547-0.2727-2.6593-0.5909-3.3411-0.8864-4.7503-2.5911-1.3865-1.7274-1.3865-4.2276 0-1.5682 0.6364-2.9547 0.6592-1.3865 1.9774-2.4774 1.2729-1.0683 3.2275-1.682 1.9774-0.6364 4.4094-0.6364 2.2729 0 4.5913 0.5682 2.341 0.5455 3.8866 1.341v4.5685h-0.2273q-1.6365-1.2046-3.9776-2.0228-2.341-0.841-4.5912-0.841-2.341 0-3.9548 0.9091-1.6137 0.8865-1.6137 2.6593 0 1.5683 0.9773 2.3638 0.9546 0.7955 3.0911 1.2956 1.1819 0.2727 2.6366 0.5454 1.4773 0.2728 2.4547 0.5001 2.9775 0.6818 4.5912 2.3411 1.6137 1.6819 1.6137 4.4548z" fill="#fff"/>
  <path d="m1813.1 1719.1h416.03v75.761h-416.03z" fill="#03a9f4"/>
  <path d="m2010 1774.3h-4.7957l-3.3185-9.4325h-14.637l-3.3184 9.4325h-4.5685l12.319-33.843h6.0004l12.319 33.843zm-9.5006-13.296-5.9322-16.615-5.955 16.615h11.887z" fill="#fff"/>
  <path d="m2035.3 1774.3h-4.273v-2.6593q-1.841 1.591-3.8412 2.4774-2.0001 0.8865-4.3412 0.8865-4.5457 0-7.2277-3.5003-2.6593-3.5002-2.6593-9.7052 0-3.2275 0.9091-5.7504 0.9319-2.5229 2.5002-4.2957 1.5456-1.7274 3.5912-2.6365 2.0683-0.9092 4.273-0.9092 2.0001 0 3.5457 0.4318 1.5455 0.4092 3.2502 1.2956v-11.001h4.273v35.366zm-4.273-6.2504v-14.569q-1.7274-0.7728-3.0911-1.0683-1.3637-0.2954-2.9775-0.2954-3.5911 0-5.5913 2.5001-2.0001 2.5002-2.0001 7.0914 0 4.523 1.5455 6.8868 1.5456 2.3411 4.9549 2.3411 1.8183 0 3.6821-0.7955 1.8638-0.8182 3.4775-2.091z" fill="#fff"/>
  <path d="m2061.9 1767q0 3.4775-2.8866 5.7049-2.8638 2.2275-7.8414 2.2275-2.8184 0-5.1822-0.6592-2.3411-0.6818-3.9321-1.4774v-4.7957h0.2273q2.0229 1.5228 4.5003 2.432 2.4775 0.8864 4.7503 0.8864 2.8184 0 4.4094-0.9092 1.591-0.9091 1.591-2.8638 0-1.5001-0.8637-2.2729-0.8636-0.7728-3.3184-1.3183-0.9091-0.2045-2.3865-0.4773-1.4546-0.2727-2.6593-0.5909-3.3411-0.8864-4.7503-2.5911-1.3864-1.7274-1.3864-4.2276 0-1.5682 0.6364-2.9547 0.6591-1.3865 1.9774-2.4774 1.2728-1.0683 3.2275-1.682 1.9774-0.6364 4.4094-0.6364 2.2728 0 4.5912 0.5682 2.341 0.5455 3.8866 1.341v4.5685h-0.2273q-1.6365-1.2046-3.9775-2.0228-2.3411-0.841-4.5912-0.841-2.3411 0-3.9549 0.9091-1.6137 0.8865-1.6137 2.6593 0 1.5683 0.9773 2.3638 0.9546 0.7955 3.0912 1.2956 1.1819 0.2727 2.6365 0.5455 1.4774 0.2727 2.4547 0.5 2.9775 0.6818 4.5912 2.3411 1.6138 1.6819 1.6138 4.4548z" fill="#fff"/>
  <path d="m26.967 1334.3h455.33v40.761h-455.33z" fill="#03a9f4"/>
  <path d="m245.48 1370.4h-4.1218l-2.852-8.1068h-12.58l-2.852 8.1068h-3.9264l10.588-29.087h5.1571l10.588 29.087zm-8.1654-11.428-5.0985-14.28-5.118 14.28h10.217z" fill="#fff"/>
  <path d="m267.3 1370.4h-3.6725v-2.2856q-1.5823 1.3674-3.3013 2.1293-1.719 0.7618-3.7311 0.7618-3.9069 0-6.212-3.0083-2.2855-3.0083-2.2855-8.3412 0-2.7739 0.78138-4.9422 0.80092-2.1683 2.1488-3.692 1.3284-1.4846 3.0864-2.266 1.7776-0.7814 3.6725-0.7814 1.719 0 3.0474 0.3712 1.3283 0.3516 2.7934 1.1134v-9.4547h3.6725v30.396zm-3.6725-5.372v-12.522q-1.4846-0.6642-2.6567-0.9181-1.1721-0.254-2.559-0.254-3.0864 0-4.8055 2.1488-1.719 2.1488-1.719 6.0948 0 3.8873 1.3283 5.9189 1.3284 2.0121 4.2585 2.0121 1.5628 0 3.1646-0.6837 1.6018-0.7033 2.9888-1.7972z" fill="#fff"/>
  <path d="m290.12 1364.1q0 2.9887-2.4809 4.9031-2.4613 1.9144-6.7394 1.9144-2.4223 0-4.4538-0.5665-2.012-0.586-3.3795-1.2697v-4.1218h0.19535q1.7386 1.3088 3.8678 2.0902 2.1293 0.7618 4.0827 0.7618 2.4223 0 3.7897-0.7814 1.3674-0.7813 1.3674-2.4613 0-1.2893-0.74231-1.9534-0.74231-0.6642-2.852-1.133-0.78138-0.1759-2.0511-0.4103-1.2502-0.2344-2.2855-0.5079-2.8716-0.7618-4.0827-2.2269-1.1916-1.4846-1.1916-3.6334 0-1.3479 0.54696-2.5395 0.5665-1.1916 1.6995-2.1292 1.0939-0.9182 2.7739-1.4456 1.6995-0.547 3.7897-0.547 1.9534 0 3.946 0.4884 2.012 0.4688 3.3404 1.1525v3.9265h-0.19534q-1.4065-1.0354-3.4185-1.7386-2.012-0.7228-3.946-0.7228-2.012 0-3.399 0.7814-1.387 0.7618-1.387 2.2855 0 1.3479 0.83999 2.0316 0.82044 0.6837 2.6567 1.1135 1.0158 0.2344 2.266 0.4688 1.2697 0.2344 2.1097 0.4298 2.559 0.586 3.946 2.012 1.387 1.4456 1.387 3.8288z" fill="#fff"/>
  <path d="m115.07 1629.3h278.97v26.423h-278.97z" fill="#03a9f4"/>
  <path d="m248.92 1651.7h-2.5378l-1.756-4.9915h-7.7459l-1.756 4.9915h-2.4176l6.519-17.909h3.1753l6.519 17.909zm-5.0276-7.0362-3.1392-8.7923-3.1513 8.7923h6.2905z" fill="#fff"/>
  <path d="m262.36 1651.7h-2.2612v-1.4072q-0.97424 0.8419-2.0327 1.311t-2.2973 0.4691q-2.4056 0-3.8248-1.8523-1.4072-1.8523-1.4072-5.1358 0-1.708 0.48111-3.0431 0.49314-1.335 1.323-2.2732 0.81789-0.9141 1.9004-1.3952 1.0945-0.4811 2.2612-0.4811 1.0584 0 1.8763 0.2285 0.81788 0.2165 1.72 0.6856v-5.8215h2.2612v18.715zm-2.2612-3.3076v-7.7098q-0.9141-0.4089-1.6358-0.5653-0.72166-0.1564-1.5756-0.1564-1.9004 0-2.9588 1.3231-1.0584 1.323-1.0584 3.7526 0 2.3936 0.81789 3.6445 0.81789 1.2388 2.622 1.2388 0.96222 0 1.9485-0.421 0.98628-0.433 1.8402-1.1065z" fill="#fff"/>
  <path d="m276.41 1647.8q0 1.8402-1.5275 3.0189-1.5155 1.1788-4.1496 1.1788-1.4914 0-2.7423-0.3488-1.2388-0.3609-2.0808-0.7818v-2.5379h0.12028q1.0705 0.8059 2.3815 1.287 1.311 0.4691 2.5138 0.4691 1.4914 0 2.3334-0.4812 0.84194-0.4811 0.84194-1.5155 0-0.7938-0.45705-1.2027-0.45705-0.409-1.756-0.6976-0.48111-0.1083-1.2629-0.2526-0.76978-0.1444-1.4072-0.3127-1.7681-0.4691-2.5138-1.3712-0.73369-0.9141-0.73369-2.2372 0-0.8299 0.33678-1.5636 0.3488-0.7337 1.0464-1.311 0.67356-0.5653 1.7079-0.89 1.0464-0.3368 2.3334-0.3368 1.2028 0 2.4296 0.3007 1.2388 0.2886 2.0567 0.7096v2.4176h-0.12028q-0.86599-0.6375-2.1048-1.0705-1.2389-0.445-2.4296-0.445-1.2388 0-2.0928 0.4811-0.85397 0.4691-0.85397 1.4072 0 0.83 0.51719 1.2509 0.50517 0.421 1.6358 0.6856 0.62545 0.1443 1.3952 0.2887 0.7818 0.1443 1.299 0.2646 1.5756 0.3608 2.4296 1.2388 0.85397 0.8901 0.85397 2.3575z" fill="#fff"/>
  <path d="m230.25 1980.9h229.75v13.571h-229.75z" fill="#b3e5fc"/>
  <path d="m230.25 2013.2h229.75v13.572h-229.75z" fill="#b3e5fc"/>
  <path d="m230.25 2048.5h164.88v13.572h-164.88z" fill="#b3e5fc"/>
  <path d="m497.27 1389.7h264.63v26.937h-264.63z" fill="#b3e5fc"/>
 </g>
</svg>
